<?xml version="1.0" encoding="UTF-8" standalone="no"?><!DOCTYPE svg PUBLIC "-//W3C//DTD SVG 1.1//EN" "http://www.w3.org/Graphics/SVG/1.1/DTD/svg11.dtd"><svg width="100%" height="100%" viewBox="0 0 256 256" version="1.1" xmlns="http://www.w3.org/2000/svg" xmlns:xlink="http://www.w3.org/1999/xlink" xml:space="preserve" style="fill-rule:evenodd;clip-rule:evenodd;stroke-linejoin:round;stroke-miterlimit:1.41421;"><circle cx="127.858" cy="127.858" r="127.858" style="fill:url(#_Linear1);"/><circle cx="127.716" cy="128" r="116.907" style="fill:url(#_Linear2);"/><path d="M100.311,109.955c-1.365,2.105 -2.695,4.232 -3.988,6.382c-1.366,-3.746 -2.594,-7.541 -3.684,-11.377c3.73,-0.535 7.695,-0.957 11.874,-1.249c-1.435,2.058 -2.836,4.139 -4.202,6.244l0,0Zm103.138,7.475c-4.132,-3.967 -10.04,-7.602 -17.558,-10.804c-14.926,-6.356 -34.918,-10.474 -56.295,-11.595c-2.508,-0.133 -5.018,-0.225 -7.529,-0.277c16.321,-19.481 32.083,-29.846 41.263,-30.196c1.944,-0.074 3.576,0.31 4.854,1.141c4.296,2.792 5.488,11.453 3.189,23.166c-0.045,0.249 -0.067,0.501 -0.067,0.754c0,2.341 1.926,4.267 4.267,4.267c2.006,0 3.754,-1.415 4.173,-3.377c3.953,-20.137 -1.576,-28.497 -6.911,-31.965c-2.785,-1.81 -6.093,-2.655 -9.83,-2.513c-14.12,0.536 -33.904,15.592 -51.956,38.803c-7.148,0.247 -14.038,0.864 -20.483,1.827c-0.686,-3.148 -1.228,-6.325 -1.625,-9.522c-1.619,-13.344 0.367,-22.816 5.312,-25.337c0.794,-0.405 1.662,-0.639 2.654,-0.713c4.418,-0.332 10.652,2.637 17.542,8.359c0.761,0.621 1.715,0.961 2.697,0.961c2.341,0 4.267,-1.927 4.267,-4.267c0,-1.256 -0.554,-2.449 -1.512,-3.259c-8.85,-7.35 -16.8,-10.817 -23.633,-10.303c-2.112,0.158 -4.095,0.703 -5.892,1.62c-4.593,2.342 -7.732,6.828 -9.33,13.331c-1.368,5.57 -1.562,12.513 -0.576,20.636c0.39,3.213 0.96,6.556 1.695,9.998c-5.04,1.062 -9.71,2.356 -13.897,3.869c-18.316,6.616 -22.544,15.337 -22.866,21.488c-0.308,5.876 2.7,14.62 18.775,22.91c0.584,0.286 1.226,0.435 1.877,0.435c2.341,0 4.267,-1.926 4.267,-4.267c0,-1.563 -0.859,-3.006 -2.233,-3.751c-9.247,-4.77 -14.41,-10.193 -14.165,-14.88c0.346,-6.605 11.417,-13.596 30.274,-17.535c1.747,6.309 3.99,12.861 6.68,19.505c-6.777,12.723 -11.722,25.262 -14.286,36.416c-1.833,7.97 -2.369,14.89 -1.592,20.567c0.906,6.63 3.558,11.418 7.881,14.228c2.205,1.433 5.176,2.553 9.079,2.553c5.658,0 13.275,-2.357 23.343,-9.538c1.134,-0.799 1.81,-2.102 1.81,-3.488c0,-2.341 -1.927,-4.267 -4.267,-4.267c-0.897,0 -1.771,0.282 -2.498,0.807c-9.925,7.08 -18.454,9.613 -22.816,6.778c-4.652,-3.023 -5.633,-12.642 -2.624,-25.728c1.995,-8.678 5.555,-18.296 10.383,-28.21c1.056,2.262 2.151,4.506 3.283,6.731c9.717,19.087 21.612,35.694 33.494,46.762c5.984,5.573 11.708,9.497 17.011,11.663c3.218,1.314 6.24,1.971 9.045,1.971c2.596,0 5.008,-0.563 7.216,-1.69c4.43,-2.259 7.511,-6.52 9.157,-12.665c1.41,-5.263 1.726,-11.827 0.942,-19.512c-1.543,-15.11 -7.253,-33.539 -16.077,-51.891c-0.724,-1.437 -2.202,-2.347 -3.811,-2.347c-2.34,0 -4.267,1.926 -4.267,4.267c0,0.613 0.133,1.219 0.388,1.777c8.407,17.485 13.833,34.908 15.278,49.06c1.27,12.447 -0.78,21.31 -5.486,23.71c-4.942,2.52 -13.756,-1.438 -23.58,-10.588c-11.17,-10.404 -22.43,-26.168 -31.706,-44.388c-2.086,-4.096 -4.037,-8.259 -5.851,-12.483c2.251,-4.022 4.633,-7.97 7.143,-11.836c2.503,-3.862 5.13,-7.641 7.877,-11.333c0.7,-0.01 1.405,-0.017 2.115,-0.019c3.664,-0.012 7.592,0.09 11.688,0.305c20.404,1.07 39.368,4.95 53.399,10.925c12.34,5.256 19.534,11.704 19.244,17.25c-0.246,4.708 -5.967,9.575 -15.696,13.352c-1.612,0.649 -2.673,2.221 -2.673,3.958c0,2.341 1.926,4.267 4.267,4.267c0.51,0 1.016,-0.091 1.494,-0.27c16.905,-6.563 20.821,-14.967 21.13,-20.861c0.27,-5.151 -2.04,-10.111 -6.865,-14.743l0,0.001Z" style="fill:#f2f8f6;fill-rule:nonzero;"/><path d="M119.052,128.991c0,5.153 4.174,9.33 9.323,9.33c5.149,0 9.323,-4.177 9.323,-9.33c0,-5.154 -4.174,-9.331 -9.323,-9.331c-5.149,0 -9.323,4.177 -9.323,9.33" style="fill:#f1f8f3;fill-rule:nonzero;"/><defs><linearGradient id="_Linear1" x1="0" y1="0" x2="1" y2="0" gradientUnits="userSpaceOnUse" gradientTransform="matrix(1.50379e-14,245.587,-245.587,1.50379e-14,127.858,10.1289)"><stop offset="0" style="stop-color:#fdfdfd;stop-opacity:1"/><stop offset="1" style="stop-color:#cbcbcb;stop-opacity:1"/></linearGradient><linearGradient id="_Linear2" x1="0" y1="0" x2="1" y2="0" gradientUnits="userSpaceOnUse" gradientTransform="matrix(1.37499e-14,224.553,-224.553,1.37499e-14,127.716,20.3544)"><stop offset="0" style="stop-color:#b2e198;stop-opacity:1"/><stop offset="1" style="stop-color:#04a171;stop-opacity:1"/></linearGradient></defs></svg>