<svg width="100%" height="100%" viewBox="0 0 118 92" version="1.1" xmlns="http://www.w3.org/2000/svg" xmlns:xlink="http://www.w3.org/1999/xlink" xml:space="preserve" style="fill-rule:evenodd;clip-rule:evenodd;stroke-linejoin:round;stroke-miterlimit:1.41421;"><path d="M101.653,66.299c1.193,1.974 1.219,5.085 0.189,7.227l14.222,-23.688c1.271,-2.122 1.271,-5.583 0,-7.695l-22.985,-38.295c-1.276,-2.11 -4.337,-3.848 -6.805,-3.848l-20.035,0c-2.464,0 -3.445,1.737 -2.175,3.849l14.311,23.824c0.087,0.12 0.21,0.229 0.285,0.34l22.993,38.286Z" style="fill:url(#_Radial1);fill-rule:nonzero;"/><path d="M66.239,91.964l20.035,0c2.469,0 5.528,-1.724 6.806,-3.85l8.765,-14.591c1.028,-2.141 1.004,-5.252 -0.189,-7.227l-14.59,-24.159c1.267,2.112 1.267,5.573 0,7.695l-14.23,23.674c-0.074,0.159 -0.108,0.344 -0.188,0.491l-8.733,14.538c-0.894,1.913 0.026,3.429 2.324,3.429l0,0Z" style="fill:url(#_Radial2);fill-rule:nonzero;"/><path d="M101.653,66.299l-14.59,-24.159c1.267,2.112 1.267,5.573 0,7.695l-5.139,8.562l19.917,15.129c1.031,-2.142 1.005,-5.254 -0.188,-7.227l0,0Z" style="fill:url(#_Linear3);fill-rule:nonzero;"/><g><path d="M15.366,25.665c-1.181,-1.976 -1.22,-5.088 -0.182,-7.228l-14.231,23.693c-1.271,2.122 -1.271,5.583 0,7.698l23,38.286c1.269,2.113 4.332,3.85 6.791,3.85l20.035,0c2.473,0 3.455,-1.735 2.184,-3.85l-14.317,-23.822c-0.08,-0.123 -0.21,-0.229 -0.281,-0.342l-22.999,-38.285Z" style="fill:url(#_Radial4);fill-rule:nonzero;"/><path d="M50.78,0l-20.035,0c-2.459,0 -5.522,1.727 -6.791,3.849l-8.77,14.59c-1.038,2.14 -0.999,5.252 0.182,7.228l14.599,24.163c-1.271,-2.115 -1.271,-5.577 0,-7.698l14.223,-23.674c0.069,-0.158 0.105,-0.34 0.198,-0.492l8.729,-14.536c0.892,-1.912 -0.037,-3.43 -2.335,-3.43Z" style="fill:url(#_Radial5);fill-rule:nonzero;"/><path d="M15.366,25.665l14.599,24.163c-1.271,-2.115 -1.271,-5.577 0,-7.698l5.139,-8.558l-19.919,-15.134c-1.038,2.139 -0.999,5.252 0.181,7.227l0,0Z" style="fill:url(#_Linear6);fill-rule:nonzero;"/></g><defs><radialGradient id="_Radial1" cx="0" cy="0" r="1" gradientUnits="userSpaceOnUse" gradientTransform="matrix(81.933,0,0,81.933,85.2812,-5.317)"><stop offset="0" style="stop-color:#0da960;stop-opacity:1"/><stop offset="1" style="stop-color:#03914b;stop-opacity:1"/></radialGradient><radialGradient id="_Radial2" cx="0" cy="0" r="1" gradientUnits="userSpaceOnUse" gradientTransform="matrix(60.773,0,0,60.773,88.0292,46.037)"><stop offset="0" style="stop-color:#ffcd4d;stop-opacity:1"/><stop offset="1" style="stop-color:#f6c338;stop-opacity:1"/></radialGradient><linearGradient id="_Linear3" x1="0" y1="0" x2="1" y2="0" gradientUnits="userSpaceOnUse" gradientTransform="matrix(-25.871,3.16828e-15,-3.16828e-15,-25.871,107.237,57.832)"><stop offset="0" style="stop-color:#231f20;stop-opacity:0.2"/><stop offset="1" style="stop-color:#f1f2f2;stop-opacity:0.247059"/></linearGradient><radialGradient id="_Radial4" cx="0" cy="0" r="1" gradientUnits="userSpaceOnUse" gradientTransform="matrix(-81.935,-6.27388e-14,6.27388e-14,-81.935,31.7432,97.282)"><stop offset="0" style="stop-color:#4387fd;stop-opacity:1"/><stop offset="1" style="stop-color:#4683ea;stop-opacity:1"/></radialGradient><radialGradient id="_Radial5" cx="0" cy="0" r="1" gradientUnits="userSpaceOnUse" gradientTransform="matrix(-60.772,-4.6534e-14,4.6534e-14,-60.772,28.9952,45.931)"><stop offset="0" style="stop-color:#e04a3f;stop-opacity:1"/><stop offset="1" style="stop-color:#cd372d;stop-opacity:1"/></radialGradient><linearGradient id="_Linear6" x1="0" y1="0" x2="1" y2="0" gradientUnits="userSpaceOnUse" gradientTransform="matrix(25.876,2.27374e-13,-2.27374e-13,25.876,9.78525,34.133)"><stop offset="0" style="stop-color:#231f20;stop-opacity:0.2"/><stop offset="1" style="stop-color:#f1f2f2;stop-opacity:0.247059"/></linearGradient></defs></svg>
